<svg viewBox="0 0 1000 1000" fill="none" xmlns="http://www.w3.org/2000/svg">
<circle cx="500" cy="500" r="500" fill="white"/>
<path d="M845.098 282C847.971 282 850.229 282.821 851.871 284.463C853.513 286.105 854.335 288.363 854.335 291.237V372.521C854.335 375.394 853.513 377.652 851.871 379.294C850.229 380.937 847.971 381.758 845.098 381.758H741.645C739.593 381.758 738.566 382.784 738.566 384.837V703.815C738.566 706.688 737.745 708.946 736.103 710.588C734.461 712.23 732.203 713.051 729.33 713.051H632.035C629.161 713.051 626.904 712.23 625.261 710.588C623.619 708.946 622.798 706.688 622.798 703.815V384.837C622.798 382.784 621.772 381.758 619.719 381.758H519.346C516.472 381.758 514.214 380.937 512.572 379.294C510.93 377.652 510.109 375.394 510.109 372.521V291.237C510.109 288.363 510.93 286.105 512.572 284.463C514.214 282.821 516.472 282 519.346 282H845.098Z" fill="black"/>
<path d="M309.415 717.978C276.163 717.978 247.221 711.82 222.589 699.504C197.958 687.188 178.868 669.946 165.321 647.778C151.774 625.61 145 599.746 145 570.189V537.552C145 534.678 145.821 532.42 147.463 530.778C149.105 529.136 151.363 528.315 154.237 528.315H251.531C254.405 528.315 256.663 529.136 258.305 530.778C259.947 532.42 260.768 534.678 260.768 537.552V569.573C260.768 584.352 265.079 596.257 273.7 605.289C282.321 614.32 294.226 618.836 309.415 618.836C324.194 618.836 336.305 614.32 345.747 605.289C355.189 596.257 359.91 584.352 359.91 569.573V291.237C359.91 288.363 360.731 286.105 362.373 284.463C364.015 282.821 366.273 282 369.147 282H465.826C468.699 282 470.957 282.821 472.599 284.463C474.241 286.105 475.062 288.363 475.062 291.237V570.189C475.062 599.336 468.083 625.199 454.126 647.778C440.168 669.946 420.668 687.188 395.626 699.504C370.584 711.82 341.847 717.978 309.415 717.978Z" fill="black"/>
</svg>
